PathFileType	4	(X/Y/Z)	C:\Users\°ÂÌØÂü\Desktop\20210112\bx_y_5_902-Unnamed.trc
DataRate	CameraRate	NumFrames	NumMarkers	Units	OrigDataRate	OrigDataStartFrame	OrigNumFrames
50.00	50.00	       4	0	mm	50.00	329	       525
Frame#	Time	
		

329	6.560	-453.61255	115.15970	1784.97656	-601.55206	280.92258	1509.81189	-764.06165	272.18655	745.44452	-881.25726	94.68536	1055.33813	-723.46698	276.34155	876.28607	-721.81061	72.15073	220.40463	-783.37140	247.98105	634.16803	-779.59460	243.54901	572.18823	-721.03528	203.27573	535.74658	-813.61176	254.13864	495.91156	-517.99176	-72.94415	143.00693	-763.45313	-56.16719	706.01910	-604.27838	17.35344	168.91716	-675.06305	174.71526	158.90588	-773.42108	224.72427	203.00917	-595.11023	225.15500	174.18320	-882.23950	296.29584	144.70264	-561.09796	262.32950	165.49768	-666.30743	300.76614	158.58600	-628.80939	308.63947	160.78584	-528.15588	303.91663	146.19887	-714.76086	155.15384	218.88931				-773.27692	-9.37339	203.62823	-796.00360	53.60975	173.02136	-797.36237	174.78178	181.95648	-815.61945	-37.75697	482.51709	-666.50244	-70.18372	159.56181	-875.99298	-78.87768	141.19183	-748.55383	74.85806	574.35504	-674.53149	-13.76270	807.48212	-741.98871	141.46384	572.16864	-778.38812	-29.31272	566.19873	-562.48840	-39.51777	163.23340	-594.23730	-75.79465	1513.19141	-624.50427	-80.01635	158.33775	-720.32996	11.41243	526.69904	-667.03204	208.97729	825.94739	-770.57153	-32.83777	616.63348	-565.37915	94.74116	1380.72217	-739.55261	-74.00549	858.79590							-676.19812	51.99239	162.63513	
330	6.580	-439.47644	115.58403	1775.50537	-594.05042	279.32739	1503.44104	-768.95056	272.62537	746.04529	-887.30304	94.39247	1056.41833	-728.02667	275.72137	875.84583	-722.53833	71.99158	220.49094	-786.62463	248.38251	633.99249	-782.62830	243.42308	571.99219	-723.63599	203.36351	536.13300	-815.62933	254.45953	495.59827	-517.93365	-72.88680	143.00002	-767.33929	-56.82753	705.32141	-604.35663	17.32484	169.00829	-675.42651	174.71640	158.90097	-773.60614	224.82814	202.76736	-595.24658	225.10495	174.31073	-882.62311	296.18903	144.72314	-561.29742	262.33295	165.31757	-666.37262	300.63501	158.60693	-628.80072	308.88678	160.88773	-528.27435	303.66299	146.05374	-715.01208	155.48579	218.92639				-773.67059	-9.39254	203.36009	-796.00256	53.34124	172.90082	-797.35059	174.94495	181.92169	-817.71844	-38.14204	482.06476	-666.69904	-70.31541	159.56770	-875.93359	-78.96604	141.13327	-751.46417	74.19368	573.87860	-679.61005	-14.39678	807.30225	-745.02960	141.38443	572.05554	-780.94183	-29.45317	565.63641	-562.29840	-39.72147	163.32314	-585.76898	-76.06427	1507.16614	-624.66016	-80.18084	158.34761	-723.16846	11.44449	526.53815	-671.65179	208.88399	826.01611	-773.72888	-33.18285	616.09625	-561.61078	94.17715	1374.44690	-744.95197	-74.76617	858.45837							-676.22412	51.85315	162.91434	
331	6.600	-425.28101	115.92088	1765.17383	-586.45941	278.47879	1497.53308	-772.67249	272.99835	745.06323	-891.88409	94.21752	1057.17053	-732.65796	275.85086	875.87024	-722.85419	71.98323	220.41139	-789.45142	247.92274	632.98218	-785.09790	243.39308	571.38611	-725.89392	203.47717	536.15564	-817.53455	254.18448	494.72061	-518.02930	-72.89078	142.92763	-771.77191	-57.85761	705.26831	-604.31299	17.32163	169.07210	-675.42285	174.70293	159.14243	-773.98969	225.13002	202.72420	-595.48145	225.15117	174.27742	-882.58563	296.05792	144.70854	-561.34174	262.25793	165.48888	-666.36346	300.72589	158.31618	-628.80072	308.88678	160.88773	-528.06622	303.52866	146.37646	-715.15363	155.60666	218.96620	-694.48926	-16.72991	1045.02832	-773.86725	-9.75973	203.24144	-796.14520	53.36664	173.00870	-797.43988	174.89604	181.81375	-819.24719	-37.74393	481.15640	-666.60791	-70.21792	159.43524	-875.99457	-78.94872	141.12155	-754.72064	73.94550	573.82098	-684.22241	-15.16187	806.77667	-747.45569	141.14120	571.99103	-784.49377	-30.22631	565.48688	-562.49152	-39.61275	163.37148	-577.96216	-76.17670	1500.73584	-624.55676	-80.27865	158.42273	-725.65326	10.82380	526.71283	-676.80121	207.51172	824.68750	-776.97198	-33.55077	615.70087	-557.32550	93.46781	1368.12390	-749.91559	-75.23849	858.42590							-676.25055	51.91709	163.21835	
332	6.620	-410.77908	116.19148	1754.17468	-578.92145	277.82239	1491.09985	-777.32532	273.25711	745.13147	-896.19971	93.75467	1057.52271	-737.61517	274.91611	875.36493	-723.60150	71.65769	219.62076	-792.94342	247.88618	632.57043	-788.13501	243.60889	571.55548	-728.55035	203.59245	536.23883	-820.06885	254.70619	494.99838	-518.02032	-72.96600	143.02760	-776.30182	-58.50815	704.17139	-604.35663	17.32484	169.00829	-675.39606	174.53079	159.36826	-774.09088	225.20900	202.61156	-595.24854	225.02107	174.33221	-882.73462	296.01462	144.61380	-561.38184	262.29865	165.47787	-666.51196	300.88806	158.22263	-628.88855	308.94507	160.87115	-528.31757	303.66510	146.30051	-715.79279	155.76848	219.22421	-699.19147	-17.34390	1043.84326	-774.38489	-10.00903	203.01804	-796.32288	53.11229	172.44672	-797.65039	175.13152	182.04454	-822.02130	-38.10608	480.23340	-666.67773	-70.41408	159.49269	-876.10980	-78.86684	141.15924	-758.09082	73.18665	573.10614	-688.78796	-15.58362	806.27313	-750.43256	141.11685	571.40967	-787.39691	-30.85669	564.74359	-562.82758	-39.55246	163.20018	-569.84979	-76.47746	1494.11292	-624.66974	-80.32137	158.27692	-729.01428	10.58142	526.13995	-681.63361	207.20421	824.61682	-780.31537	-34.00528	615.19324				-755.36487	-74.96159	856.61432	-688.69141	206.97028	1057.20032				-676.25055	51.91709	163.21835	
